<svg width="18" height="18" viewBox="0 0 18 18" fill="none" xmlns="http://www.w3.org/2000/svg">
<path d="M9 0C10.1935 0 11.3381 0.474106 12.182 1.31802C13.0259 2.16193 13.5 3.30653 13.5 4.5C13.5 5.69347 13.0259 6.83807 12.182 7.68198C11.3381 8.52589 10.1935 9 9 9C7.80653 9 6.66193 8.52589 5.81802 7.68198C4.97411 6.83807 4.5 5.69347 4.5 4.5C4.5 3.30653 4.97411 2.16193 5.81802 1.31802C6.66193 0.474106 7.80653 0 9 0ZM9 2.25C8.40326 2.25 7.83097 2.48705 7.40901 2.90901C6.98705 3.33097 6.75 3.90326 6.75 4.5C6.75 5.09674 6.98705 5.66903 7.40901 6.09099C7.83097 6.51295 8.40326 6.75 9 6.75C9.59674 6.75 10.169 6.51295 10.591 6.09099C11.0129 5.66903 11.25 5.09674 11.25 4.5C11.25 3.90326 11.0129 3.33097 10.591 2.90901C10.169 2.48705 9.59674 2.25 9 2.25ZM9 10.125C12.0037 10.125 18 11.6213 18 14.625V18H0V14.625C0 11.6213 5.99625 10.125 9 10.125ZM9 12.2625C5.65875 12.2625 2.1375 13.905 2.1375 14.625V15.8625H15.8625V14.625C15.8625 13.905 12.3413 12.2625 9 12.2625Z" fill="#379ADD"/>
</svg>
